<svg width="20" height="24" viewBox="0 0 20 24" fill="none" xmlns="http://www.w3.org/2000/svg">
<path d="M19.1033 19.0994C19.0328 19.0536 18.5018 18.6816 17.9702 17.5564C16.9938 15.49 16.7889 12.5792 16.7889 10.5012C16.7889 10.4921 16.7887 10.4832 16.7884 10.4742C16.7777 7.72781 15.1332 5.36034 12.7799 4.29811V2.67356C12.7799 1.19934 11.5825 0 10.1107 0H9.88953C8.41775 0 7.22038 1.19934 7.22038 2.67356V4.29802C4.85919 5.36367 3.21139 7.74323 3.21139 10.5012C3.21139 12.5792 3.00645 15.49 2.03009 17.5564C1.49849 18.6816 0.967532 19.0535 0.896938 19.0994C0.599657 19.2369 0.453079 19.5548 0.52147 19.8768C0.590517 20.2021 0.894548 20.4263 1.22656 20.4263H6.38033C6.40911 22.4017 8.02133 24 10.0002 24C11.979 24 13.5912 22.4017 13.62 20.4263H18.7738C19.1057 20.4263 19.4098 20.2021 19.4788 19.8768C19.5471 19.5548 19.4006 19.2369 19.1033 19.0994V19.0994ZM8.62667 2.67356C8.62667 1.97602 9.1932 1.40855 9.88958 1.40855H10.1108C10.8072 1.40855 11.3737 1.97602 11.3737 2.67356V3.84155C10.9299 3.74981 10.4705 3.70153 9.99997 3.70153C9.52963 3.70153 9.07034 3.74977 8.62672 3.84141V2.67356H8.62667ZM10.0002 22.5915C8.79674 22.5915 7.81513 21.625 7.78658 20.4264H12.2137C12.1852 21.625 11.2036 22.5915 10.0002 22.5915V22.5915ZM12.8314 19.0178C12.8313 19.0178 2.82899 19.0178 2.82899 19.0178C2.95063 18.8282 3.07442 18.6135 3.19747 18.371C4.13984 16.5127 4.61769 13.8649 4.61769 10.5012C4.61769 7.5285 7.03217 5.11008 9.99992 5.11008C12.9677 5.11008 15.3822 7.5285 15.3822 10.5035C15.3822 10.5122 15.3823 10.5208 15.3826 10.5294C15.3853 13.8797 15.8631 16.518 16.8028 18.371C16.9259 18.6136 17.0497 18.8282 17.1713 19.0178H12.8314Z" fill="black"/>
</svg>
